<svg height="100" width="100" xmlns="http://www.w3.org/2000/svg"><g fill="#000080"><path d="m13.996094 0c-1.380655.00013804-2.499862 1.1193453-2.5 2.5v67.5h-11.496094v22h11.496094v5.5c.000138 1.380655 1.119345 2.499862 2.5 2.5h72c1.380655-.000138 2.499862-1.119345 2.5-2.5v-75.875c.0265-1.112978.004-1.776696-.732422-2.589844l-18.302734-18.30273412c-.47641-.47657252-1.125019-.74066416-1.798829-.73242188zm2.5 5h48.902344l1.251953 14.568359c.104002 1.212054 1.065289 2.173342 2.277343 2.277344l14.56836 1.251953v71.902344h-67v-3h63.503906v-22h-63.503906zm54.27539 4.1152344 8.609375 8.6093746-7.927734-.68164zm-60.292968 63.8847656c1.369744 0 2.439372.378643 3.207031 1.136719.772677.751483 1.26947 1.793424 1.490234 3.125l-2.21289.542969c-.155539-.711933-.449365-1.270987-.88086-1.679688-.426477-.415294-.961291-.623047-1.603515-.623047-.973373 0-1.7472201.405986-2.3242191 1.216797-.5719813.810811-.859375 2.012168-.859375 3.607422 0 1.720501.2910308 3.013406.8730469 3.876953.5820163.856955 1.3457945 1.285156 2.2890622 1.285156.466616 0 .931821-.118157 1.398438-.355469.471634-.243902.876726-.538077 1.21289-.880859v-1.837891h-2.550781v-2.443359h4.800781v5.775391c-.466616.593276-1.143174 1.11742-2.03125 1.572265-.883059.448254-1.779354.671875-2.6875.671875-1.1539972 0-2.1596056-.31639-3.0175778-.949218-.8579719-.63942-1.5040518-1.548555-1.9355468-2.728516-.431495-1.186552-.6464844-2.476284-.6464844-3.867188 0-1.509557.2409877-2.850068.7226562-4.023437.4816686-1.173369 1.1870187-2.072983 2.1152344-2.699219.7074506-.481213 1.5869741-.722656 2.6406254-.722656zm37.330078 0c1.384797 0 2.425631.399638 3.123047 1.197266.702433.797626 1.070347 1.861784 1.105468 3.193359l-2.226562.128906c-.09533-.744891-.301092-1.280509-.617188-1.603515-.311077-.329598-.78103-.494141-1.408203-.494141-.647242 0-1.153262.176017-1.519531.525391-.235817.224126-.353516.522696-.353516.898437 0 .342782.109313.636957.330079.880859.280974.309823.963121.632561 2.046874.96875 1.083755.336191 1.885554.686271 2.402344 1.048829.521808.355965.927742.84642 1.21875 1.472656.296026.619644.44336 1.388405.44336 2.304687 0 .830587-.174174 1.606916-.525391 2.332032-.351217.725115-.84801 1.267081-1.490234 1.623046-.642226.349374-1.444025.523438-2.402344.523438-1.394832 0-2.465301-.421855-3.212891-1.265625-.74759-.850363-1.19434-2.085409-1.339844-3.707031l2.167969-.277344c.130452.955834.392689 1.657215.789063 2.105469.40139.448252.941794.671875 1.61914.671875.717486 0 1.255936-.19628 1.617188-.591797.366269-.402109.550781-.870348.550781-1.404297 0-.342782-.078836-.633784-.234375-.871094-.150521-.243902-.415554-.45483-.796875-.632812-.260903-.118656-.854987-.329583-1.783203-.632813-1.194137-.388925-2.032003-.866686-2.513672-1.433593-.677346-.797627-1.017578-1.769015-1.017578-2.916016 0-.738299.158515-1.426986.474609-2.066406.321113-.646012.779885-1.13842 1.376953-1.47461.602087-.33619 1.327844-.503906 2.175782-.503906zm11.318359 0c1.625631 0 2.925066.663297 3.898438 1.988281.978389 1.324984 1.46875 3.167423 1.46875 5.527344 0 2.340145-.484771 4.17111-1.453125 5.496094-.968355 1.318391-2.262199 1.978515-3.882813 1.978515-1.640684 0-2.945708-.65695-3.914062-1.96875-.968355-1.318391-1.453125-3.130314-1.453125-5.4375 0-1.476598.167741-2.716772.503906-3.71875.250869-.738299.591943-1.399643 1.023437-1.986328.436512-.586683.91485-1.021233 1.431641-1.304687.687381-.382334 1.478842-.574219 2.376953-.574219zm-19.777344.248047h2.21875v9.175781c0 1.199737-.079677 2.121567-.240234 2.767578-.215747.843771-.606864 1.522937-1.173828 2.03711-.566964.507581-1.313972.761718-2.242188.761718-1.088772 0-1.926637-.399638-2.513671-1.197265-.587034-.804219-.883655-1.980187-.888672-3.529297l2.099609-.316406c.025087.830586.11874 1.416984.279297 1.759765.240834.520766.605953.78125 1.097656.78125.496721 0 .848974-.183584 1.054688-.552734.205712-.375742.308593-1.150851.308593-2.324219zm26.898438 0h2.166015l4.515626 9.679687v-9.679687h2.070312v14.494141h-2.234375l-4.449219-9.451172v9.451172h-2.068359zm-7.097656 2.253906c-.918181 0-1.658756.415507-2.220703 1.246094-.561948.823995-.841797 2.068563-.841797 3.736328 0 1.641397.288235 2.887919.865234 3.738281.576999.843771 1.309189 1.265625 2.197266 1.265625.888076 0 1.614676-.41868 2.18164-1.255859.571982-.843771.859375-2.10616.859375-3.78711 0-1.661173-.279008-2.899394-.835937-3.716796-.551912-.817404-1.286898-1.226563-2.205078-1.226563zm-38.751953 1.501953c1.189119 0 2.127071.517797 2.814453 1.552735.687381 1.028345 1.016432 2.607125.986328 4.736328h-5.298828c.015053.823994.18559 1.466297.511718 1.927734.32613.454845.732064.683594 1.21875.683594.331148 0 .610155-.120111.835938-.357422.225782-.237311.396319-.619128.511719-1.146484l2.107422.464843c-.27094 1.015162-.700076 1.790271-1.28711 2.324219-.582017.527357-1.311412.791016-2.189453.791016-1.389815 0-2.418625-.595918-3.085937-1.789063-.526825-.955833-.791016-2.162318-.791016-3.61914 0-1.740278.346664-3.101783 1.039062-4.083985.692399-.988794 1.568286-1.484375 2.626954-1.484375zm9.158203 0c1.209189 0 2.201932.517797 2.974609 1.552735.772677 1.028345 1.158203 2.330772 1.158203 3.90625 0 1.588662-.391116 2.906956-1.173828 3.955078-.777693 1.041529-1.759257 1.5625-2.943359 1.5625-.732538 0-1.432298-.217275-2.09961-.652344-.662294-.435069-1.165519-1.071024-1.511718-1.908203-.346199-.843771-.519532-1.869844-.519532-3.076172 0-.922874.173333-1.816141.519532-2.679688.346199-.863545.834606-1.521717 1.466796-1.976562.637208-.454845 1.346195-.683594 2.128907-.683594zm-9.03125 2.126953c-.461599 0-.841535.220449-1.142579.66211-.301042.441661-.450329 1.040753-.445312 1.798828h3.162109c-.015053-.804219-.173568-1.412832-.474609-1.828125-.301043-.421885-.668115-.632813-1.099609-.632813zm9.039062.138672c-.551912 0-1.016275.276354-1.392578.830078-.376304.553724-.564453 1.351049-.564453 2.392579 0 1.041528.188149 1.838853.564453 2.392578.376303.553724.840666.832031 1.392578.832031s1.013479-.278307 1.384766-.832031c.376303-.553725.564453-1.357397.564453-2.41211 0-1.028346-.18815-1.819323-.564453-2.373047-.371287-.553724-.832854-.830078-1.384766-.830078z"/><path d="m51.25201 18v10.11h8.852106c-.49463-1.414-1.066749-2.719-1.706842-3.881-1.985761-3.606-4.507238-5.78-7.145264-6.229zm-2.504022.1c-2.468714.613-4.812548 2.735-6.681628 6.13-.640094 1.162-1.212212 2.467-1.706843 3.881h8.388471zm-5.76903.678c-5.005568 1.636-9.23247 4.973-12.004628 9.333h6.73836c.59445-1.851 1.318515-3.562 2.159716-5.089.897522-1.63 1.94268-3.067 3.106552-4.244zm14.728732.231c1.074155 1.134 2.043867 2.488 2.883537 4.013.841018 1.527 1.563562 3.238 2.156784 5.089h6.27766c-2.64482-4.16-6.611714-7.393-11.317981-9.102zm-28.112528 11.606c-1.197757 2.551-1.9332 5.362-2.095162 8.329h8.408032c.09731-2.941.479491-5.744 1.103333-8.329zm10.003367 0c-.661224 2.542-1.077406 5.357-1.183539 8.329h10.332998v-8.329zm11.653481 0v8.329h10.796636c-.106132-2.972-.522321-5.787-1.183542-8.329zm12.197322 0c.62215 2.586 1.003374 5.388 1.1004 8.329h7.950268c-.161962-2.967-.897406-5.778-2.095161-8.329zm-35.949332 10.832c.161962 2.967.897405 5.778 2.095162 8.329h7.297853c-.587798-2.593-.934178-5.396-.998677-8.329zm10.898363 0c.07035 2.962.451395 5.774 1.074965 8.329h9.27466v-8.329zm12.853647 0v8.329h9.738295c.623567-2.555 1.004638-5.367 1.074969-8.329zm13.30946 0c-.06448 2.932-.408374 5.736-.994761 8.329h6.83813c1.197755-2.551 1.933199-5.362 2.095161-8.329zm-33.58714 10.833c2.646833 4.162 6.617775 7.397 11.328737 9.105-.894434-1.026-1.710698-2.207-2.430661-3.514-.916929-1.666-1.697371-3.546-2.319151-5.591zm9.212057 0c.531489 1.61 1.164592 3.084 1.879973 4.383 1.752589 3.182 3.922987 5.246 6.221905 5.997.153328.01.305548.03.459723.03v-10.415zm11.065623 0v10.415c.35725-.02.712595-.04 1.065187-.08 2.246341-.789 4.363506-2.834 6.080077-5.951.71538-1.299 1.348482-2.773 1.879972-4.383zm11.656415 0c-.620622 2.045-1.400321 3.926-2.317198 5.591-.657021 1.193-1.393657 2.282-2.196887 3.243 4.4049-1.766 8.116518-4.879 10.631331-8.834z"/></g></svg>